G04*
G04 #@! TF.GenerationSoftware,Altium Limited,Altium Designer,20.1.11 (218)*
G04*
G04 Layer_Color=65535*
%FSLAX25Y25*%
%MOIN*%
G70*
G04*
G04 #@! TF.SameCoordinates,B011805C-8237-4A5F-8DD1-956530F10964*
G04*
G04*
G04 #@! TF.FilePolarity,Positive*
G04*
G01*
G75*
%ADD10C,0.01968*%
%ADD11C,0.00984*%
%ADD12C,0.01000*%
%ADD13C,0.00800*%
D10*
X-119393Y187385D02*
G03*
X-119409Y200804I-134J6709D01*
G01*
X-119393Y181061D02*
G03*
X-119454Y207152I-5111J13034D01*
G01*
X-119409Y200804D02*
Y207152D01*
X-119393Y181061D02*
Y187385D01*
X-117835Y182283D02*
Y187402D01*
X-116260Y183071D02*
Y188189D01*
X-114685Y184646D02*
Y188976D01*
X-117835Y200787D02*
Y205906D01*
X-116260Y200000D02*
Y205118D01*
X-114685Y198819D02*
Y203150D01*
X-113110Y197244D02*
Y201575D01*
Y186221D02*
Y190551D01*
X-112323Y188976D02*
Y197244D01*
X-128477Y238057D02*
X-129789Y239369D01*
X-132413D01*
X-133725Y238057D01*
Y232809D01*
X-132413Y231497D01*
X-129789D01*
X-128477Y232809D01*
X-120606Y231497D02*
X-125853D01*
X-120606Y236745D01*
Y238057D01*
X-121918Y239369D01*
X-124541D01*
X-125853Y238057D01*
X-145276Y196718D02*
X-146588Y198030D01*
X-149211D01*
X-150523Y196718D01*
Y191471D01*
X-149211Y190159D01*
X-146588D01*
X-145276Y191471D01*
X-142652Y190159D02*
X-140028D01*
X-141340D01*
Y198030D01*
X-142652Y196718D01*
X74380Y257141D02*
X71756D01*
X73068D01*
Y250582D01*
X71756Y249270D01*
X70444D01*
X69132Y250582D01*
X77004Y249270D02*
X79628D01*
X78316D01*
Y257141D01*
X77004Y255830D01*
X-25196Y-38059D02*
X-17324D01*
Y-41995D01*
X-18636Y-43307D01*
X-21260D01*
X-22572Y-41995D01*
Y-38059D01*
Y-40683D02*
X-25196Y-43307D01*
Y-45931D02*
Y-48555D01*
Y-47243D01*
X-17324D01*
X-18636Y-45931D01*
X-41068Y-100430D02*
Y-92558D01*
X-37132D01*
X-35820Y-93870D01*
Y-96494D01*
X-37132Y-97806D01*
X-41068D01*
X-27949Y-92558D02*
X-33196D01*
Y-100430D01*
X-27949D01*
X-33196Y-96494D02*
X-30572D01*
X115094Y153148D02*
Y145277D01*
X119030D01*
X120342Y146589D01*
Y151836D01*
X119030Y153148D01*
X115094D01*
X126901Y145277D02*
Y153148D01*
X122966Y149213D01*
X128213D01*
X32417Y156692D02*
Y148820D01*
X36353D01*
X37664Y150132D01*
Y155380D01*
X36353Y156692D01*
X32417D01*
X45536Y148820D02*
X40288D01*
X45536Y154068D01*
Y155380D01*
X44224Y156692D01*
X41600D01*
X40288Y155380D01*
X79004Y-19686D02*
Y-27558D01*
X82940D01*
X84252Y-26246D01*
Y-20998D01*
X82940Y-19686D01*
X79004D01*
X86876Y-27558D02*
X89500D01*
X88188D01*
Y-19686D01*
X86876Y-20998D01*
X-136768Y-136258D02*
Y-141506D01*
X-134144Y-144130D01*
X-131520Y-141506D01*
Y-136258D01*
X-128896Y-144130D02*
Y-136258D01*
X-124960D01*
X-123649Y-137570D01*
Y-140194D01*
X-124960Y-141506D01*
X-128896D01*
X-126272D02*
X-123649Y-144130D01*
X-121025D02*
X-118401D01*
X-119713D01*
Y-136258D01*
X-121025Y-137570D01*
X-149368Y84270D02*
Y92141D01*
X-146744Y89518D01*
X-144120Y92141D01*
Y84270D01*
X-141496D02*
X-138872D01*
X-140184D01*
Y92141D01*
X-141496Y90830D01*
X-127920Y-62959D02*
X-133168D01*
Y-66894D01*
X-130544D01*
X-133168D01*
Y-70830D01*
X-125296D02*
X-122672D01*
X-123984D01*
Y-62959D01*
X-125296Y-64270D01*
X110371Y7875D02*
Y15747D01*
X114307D01*
X115619Y14435D01*
Y11811D01*
X114307Y10499D01*
X110371D01*
X112995D02*
X115619Y7875D01*
X123490Y15747D02*
X118242D01*
Y7875D01*
X123490D01*
X118242Y11811D02*
X120866D01*
X126114Y14435D02*
X127426Y15747D01*
X130050D01*
X131361Y14435D01*
Y13123D01*
X130050Y11811D01*
X128738D01*
X130050D01*
X131361Y10499D01*
Y9187D01*
X130050Y7875D01*
X127426D01*
X126114Y9187D01*
X73757Y-164172D02*
Y-156300D01*
X77692D01*
X79004Y-157612D01*
Y-160236D01*
X77692Y-161548D01*
X73757D01*
X76380D02*
X79004Y-164172D01*
X86876Y-156300D02*
X81628D01*
Y-164172D01*
X86876D01*
X81628Y-160236D02*
X84252D01*
X94747Y-164172D02*
X89500D01*
X94747Y-158924D01*
Y-157612D01*
X93435Y-156300D01*
X90812D01*
X89500Y-157612D01*
X25856Y8269D02*
Y16140D01*
X29792D01*
X31104Y14829D01*
Y12205D01*
X29792Y10893D01*
X25856D01*
X28480D02*
X31104Y8269D01*
X38975Y16140D02*
X33727D01*
Y8269D01*
X38975D01*
X33727Y12205D02*
X36351D01*
X41599Y8269D02*
X44223D01*
X42911D01*
Y16140D01*
X41599Y14829D01*
X80448Y-231891D02*
X77824D01*
X76513Y-233203D01*
Y-238451D01*
X77824Y-239762D01*
X80448D01*
X81760Y-238451D01*
Y-233203D01*
X80448Y-231891D01*
X84384D02*
Y-238451D01*
X85696Y-239762D01*
X88320D01*
X89632Y-238451D01*
Y-231891D01*
X92256D02*
X97503D01*
X94879D01*
Y-239762D01*
X-133069Y-232678D02*
X-130445D01*
X-131757D01*
Y-240550D01*
X-133069D01*
X-130445D01*
X-126509D02*
Y-232678D01*
X-121262Y-240550D01*
Y-232678D01*
X-191568Y-320230D02*
Y-312358D01*
X-187632D01*
X-186320Y-313670D01*
Y-316294D01*
X-187632Y-317606D01*
X-191568D01*
X-183696Y-320230D02*
Y-314982D01*
X-181072Y-312358D01*
X-178449Y-314982D01*
Y-320230D01*
Y-316294D01*
X-183696D01*
X-175825Y-312358D02*
Y-320230D01*
X-171889D01*
X-170577Y-318918D01*
Y-313670D01*
X-171889Y-312358D01*
X-175825D01*
X-164017Y-320230D02*
Y-312358D01*
X-167953Y-316294D01*
X-162706D01*
X162732Y-320230D02*
Y-312358D01*
X166668D01*
X167980Y-313670D01*
Y-316294D01*
X166668Y-317606D01*
X162732D01*
X170604Y-320230D02*
Y-314982D01*
X173228Y-312358D01*
X175851Y-314982D01*
Y-320230D01*
Y-316294D01*
X170604D01*
X178475Y-312358D02*
Y-320230D01*
X182411D01*
X183723Y-318918D01*
Y-313670D01*
X182411Y-312358D01*
X178475D01*
X186347Y-313670D02*
X187659Y-312358D01*
X190282D01*
X191594Y-313670D01*
Y-314982D01*
X190282Y-316294D01*
X188970D01*
X190282D01*
X191594Y-317606D01*
Y-318918D01*
X190282Y-320230D01*
X187659D01*
X186347Y-318918D01*
X162732Y312370D02*
Y320241D01*
X166668D01*
X167980Y318930D01*
Y316306D01*
X166668Y314994D01*
X162732D01*
X170604Y312370D02*
Y317618D01*
X173228Y320241D01*
X175851Y317618D01*
Y312370D01*
Y316306D01*
X170604D01*
X178475Y320241D02*
Y312370D01*
X182411D01*
X183723Y313682D01*
Y318930D01*
X182411Y320241D01*
X178475D01*
X191594Y312370D02*
X186347D01*
X191594Y317618D01*
Y318930D01*
X190282Y320241D01*
X187659D01*
X186347Y318930D01*
X-190268Y312370D02*
Y320241D01*
X-186332D01*
X-185020Y318930D01*
Y316306D01*
X-186332Y314994D01*
X-190268D01*
X-182396Y312370D02*
Y317618D01*
X-179772Y320241D01*
X-177149Y317618D01*
Y312370D01*
Y316306D01*
X-182396D01*
X-174525Y320241D02*
Y312370D01*
X-170589D01*
X-169277Y313682D01*
Y318930D01*
X-170589Y320241D01*
X-174525D01*
X-166653Y312370D02*
X-164030D01*
X-165341D01*
Y320241D01*
X-166653Y318930D01*
D11*
X-119415Y207137D02*
G03*
X-119393Y181061I-5089J-13042D01*
G01*
X-187992Y5512D02*
Y170866D01*
X-100197D01*
X-187992Y5512D02*
X-100197D01*
Y170866D01*
D12*
X-72835Y-66929D02*
G03*
X-72835Y-66929I-55118J0D01*
G01*
X-163386Y316339D02*
G03*
X-163386Y316339I-13780J0D01*
G01*
X190945D02*
G03*
X190945Y316339I-13780J0D01*
G01*
Y-316339D02*
G03*
X190945Y-316339I-13780J0D01*
G01*
X-163386D02*
G03*
X-163386Y-316339I-13780J0D01*
G01*
X12621Y227661D02*
Y278661D01*
X136221D01*
X94095Y18898D02*
Y135039D01*
Y18898D02*
X145276D01*
Y135039D01*
X94095D02*
X145276D01*
X58071Y-154331D02*
Y-38189D01*
Y-154331D02*
X109252D01*
Y-38189D01*
X58071D02*
X109252D01*
X12008Y18110D02*
Y134252D01*
Y18110D02*
X63189D01*
Y134252D01*
X12008D02*
X63189D01*
X-113784Y212291D02*
Y226291D01*
X-137284Y212291D02*
Y226291D01*
X-121283D02*
X-113784D01*
X-121283Y212291D02*
X-113784D01*
X-137284D02*
X-129783D01*
X-137284Y226291D02*
X-129783D01*
X-85236Y-150591D02*
Y-129724D01*
X-169882Y-150591D02*
X-85236D01*
X-169882D02*
Y-129724D01*
X-85236D01*
X-104331Y19882D02*
X-108329D01*
X-110329Y21881D01*
X-108329Y23881D01*
X-104331D01*
X-107330D01*
Y19882D01*
X-109329Y29879D02*
X-110329Y28879D01*
Y26880D01*
X-109329Y25880D01*
X-105330D01*
X-104331Y26880D01*
Y28879D01*
X-105330Y29879D01*
X-104331Y31878D02*
X-108329Y35877D01*
X-110329Y37876D02*
X-104331D01*
Y41875D01*
X-147441Y19094D02*
X-151440D01*
X-153439Y21094D01*
X-151440Y23093D01*
X-147441D01*
X-150440D01*
Y19094D01*
X-152439Y29091D02*
X-153439Y28092D01*
Y26092D01*
X-152439Y25093D01*
X-148441D01*
X-147441Y26092D01*
Y28092D01*
X-148441Y29091D01*
X-147441Y31091D02*
X-151440Y35089D01*
X-147441Y37089D02*
X-153439D01*
X-147441Y41087D01*
X-153439D01*
X-106739Y145276D02*
Y149274D01*
X-109738Y151274D02*
X-105739D01*
X-103740Y153273D01*
X-105739Y155272D01*
X-109738D01*
X-139613Y144291D02*
Y148290D01*
X-141613Y146291D02*
X-137614D01*
X-142612Y150289D02*
X-138613D01*
X-136614Y152289D01*
X-138613Y154288D01*
X-142612D01*
X-216535Y-342520D02*
Y342520D01*
X216535D01*
Y-342520D02*
Y342520D01*
X-216535Y-342520D02*
X216535D01*
D13*
X-35433Y-62520D02*
Y-56520D01*
Y-28520D02*
Y-22520D01*
X-43433Y-56520D02*
X-27433D01*
Y-28520D01*
X-43433D02*
X-27433D01*
X-43433Y-56520D02*
Y-28520D01*
X126732Y140020D02*
Y145020D01*
X114232Y140020D02*
X129232D01*
Y145020D01*
X114232D02*
X129232D01*
X114232Y140020D02*
Y145020D01*
X107732Y142520D02*
X114232D01*
X129232D02*
X135732D01*
X44055Y143169D02*
Y148169D01*
X31555Y143169D02*
X46555D01*
Y148169D01*
X31555D02*
X46555D01*
X31555Y143169D02*
Y148169D01*
X25055Y145669D02*
X31555D01*
X46555D02*
X53055D01*
X89961Y-32421D02*
Y-27421D01*
X77461Y-32421D02*
X92461D01*
Y-27421D01*
X77461D02*
X92461D01*
X77461Y-32421D02*
Y-27421D01*
X70961Y-29921D02*
X77461D01*
X92461D02*
X98961D01*
X136221Y227661D02*
Y278661D01*
X12621Y227661D02*
X136221D01*
X-6299Y-115748D02*
Y-77165D01*
X-65354Y-115748D02*
X-6299D01*
X-65354D02*
Y-77165D01*
X-6299D01*
X-54528Y-80315D02*
Y-77165D01*
Y-80315D02*
X-46654D01*
Y-77165D01*
X-25000Y-80315D02*
Y-77165D01*
Y-80315D02*
X-17126D01*
Y-77165D01*
X-161024Y-227559D02*
Y-224410D01*
X-153150D01*
Y-227559D02*
Y-224410D01*
X-171850Y-227559D02*
Y-188976D01*
X-83268D01*
Y-227559D02*
Y-188976D01*
X-171850Y-227559D02*
X-83268D01*
X-94095Y-227559D02*
Y-224410D01*
X-101969D02*
X-94095D01*
X-101969Y-227559D02*
Y-224410D01*
X-123622Y-227559D02*
Y-224410D01*
X-131496D02*
X-123622D01*
X-131496Y-227559D02*
Y-224410D01*
X53150Y-227559D02*
Y-224410D01*
X61024D01*
Y-227559D02*
Y-224410D01*
X42323Y-227559D02*
Y-188976D01*
X130905D01*
Y-227559D02*
Y-188976D01*
X42323Y-227559D02*
X130905D01*
X120079Y-227559D02*
Y-224410D01*
X112205D02*
X120079D01*
X112205Y-227559D02*
Y-224410D01*
X90551Y-227559D02*
Y-224410D01*
X82677D02*
X90551D01*
X82677Y-227559D02*
Y-224410D01*
M02*
