G04*
G04 #@! TF.GenerationSoftware,Altium Limited,Altium Designer,20.1.14 (287)*
G04*
G04 Layer_Physical_Order=2*
G04 Layer_Color=255*
%FSLAX25Y25*%
%MOIN*%
G70*
G04*
G04 #@! TF.SameCoordinates,1EE4E3D8-8180-470A-B355-4EF36BE04676*
G04*
G04*
G04 #@! TF.FilePolarity,Positive*
G04*
G01*
G75*
%ADD10C,0.01000*%
%ADD22C,0.09843*%
%ADD29C,0.01500*%
%ADD30C,0.05906*%
%ADD31C,0.03150*%
%ADD32C,0.16000*%
%ADD33C,0.07000*%
%ADD34R,0.07000X0.07000*%
%ADD35C,0.07874*%
%ADD36C,0.08000*%
%ADD37C,0.09055*%
%ADD38C,0.06000*%
%ADD39O,0.13780X0.09843*%
%ADD40C,0.12000*%
%ADD41O,0.09843X0.15748*%
%ADD42C,0.23622*%
D10*
X-216535Y-342520D02*
Y342520D01*
X216535D01*
Y-342520D02*
Y342520D01*
X-216535Y-342520D02*
X216535D01*
D22*
X-21063Y-95276D02*
D03*
X-50591D02*
D03*
D29*
X-95894Y275374D02*
X-93394Y259874D01*
Y277374D01*
X-74394Y276374D02*
X-72894Y269874D01*
Y277874D01*
X-67394D01*
X-63894Y285374D01*
X-60394Y269874D01*
X-56394Y285374D01*
X-53394Y277374D01*
X-51894D01*
X-90894Y269874D02*
X-82894D01*
X-80894Y277374D01*
X-76394D01*
X-74394Y276374D01*
X-93394Y277374D02*
X-90894Y269874D01*
X-93394Y277374D02*
X-91394Y285374D01*
X-82894D01*
X-80894Y277374D01*
D30*
X-34646Y-95276D02*
X-21063D01*
X-50591D02*
X-34646D01*
X-35433Y-94488D02*
Y-67520D01*
Y-94488D02*
X-34646Y-95276D01*
X2756Y-126772D02*
X68898D01*
X-14961Y-144488D02*
X2756Y-126772D01*
X-107874Y-144488D02*
X-14961D01*
X98425Y-146457D02*
X99328D01*
X101147Y-148275D01*
Y-149179D02*
Y-148275D01*
Y-149179D02*
X116142Y-164173D01*
Y-209842D02*
Y-164173D01*
X57087Y-209842D02*
Y-156299D01*
X66929Y-146457D01*
X68898D01*
X-128740Y-209842D02*
X-127756Y-208858D01*
X78740Y-252756D02*
X86614Y-244882D01*
Y-209842D01*
X-116535Y-252756D02*
X78740D01*
X-127559Y-241732D02*
Y-209842D01*
Y-241732D02*
X-116535Y-252756D01*
X-103347Y-139428D02*
Y-86614D01*
X-107874Y-143956D02*
X-103347Y-139428D01*
X-107874Y-144488D02*
Y-143956D01*
X-98032Y-209842D02*
Y-154331D01*
X-107874Y-144488D02*
X-98032Y-154331D01*
X-157087Y-209842D02*
Y-145669D01*
X-147244Y-135827D01*
X-152559Y-129979D02*
Y-86614D01*
Y-129979D02*
X-147244Y-135294D01*
Y-135827D02*
Y-135294D01*
X-127953Y-22638D02*
X-127756Y-22835D01*
Y-208858D02*
Y-22835D01*
X-107480Y11352D02*
Y13386D01*
X-103347Y-47244D02*
Y7219D01*
X-107480Y11352D02*
X-103347Y7219D01*
X-152559Y-47244D02*
Y8990D01*
X-149606Y11943D01*
Y12205D01*
D31*
X0Y124409D02*
X22835D01*
X-8661Y115748D02*
X0Y124409D01*
X-8661Y29528D02*
Y115748D01*
Y29528D02*
X68898Y-48031D01*
X35950Y230990D02*
X52621Y247661D01*
X35950Y210630D02*
Y230990D01*
X-121260Y210630D02*
X35950D01*
X37795Y60630D02*
Y208785D01*
X35950Y210630D02*
X37795Y208785D01*
X52621Y247661D02*
X54546Y249587D01*
Y254045D01*
X58121Y257620D01*
Y258661D01*
X63521Y207616D02*
Y247661D01*
X58524Y202618D02*
X63521Y207616D01*
X73228Y272835D02*
X103150D01*
X69021Y268628D02*
X73228Y272835D01*
X69021Y258661D02*
Y268628D01*
X103150Y272835D02*
X107480Y268504D01*
Y224410D02*
Y268504D01*
X124409Y159843D02*
Y207480D01*
X107480Y224410D02*
X124409Y207480D01*
Y159843D02*
X141732Y142520D01*
X22835Y45669D02*
X22992D01*
X26084Y48761D01*
Y48918D01*
X37795Y60630D01*
X19055Y65354D02*
X22835D01*
X58524Y146201D02*
X59055Y145669D01*
X58524Y146201D02*
Y202618D01*
X-129528Y202362D02*
X-121260Y210630D01*
X-129528Y194095D02*
Y202362D01*
X104921Y66142D02*
X105079D01*
X108170Y69233D01*
Y69391D01*
X81890Y-6850D02*
X104961Y-29921D01*
X81890Y-6850D02*
Y26378D01*
X62598Y45669D02*
X81890Y26378D01*
X52362Y45669D02*
X62598D01*
X68898Y51968D01*
X52362Y124409D02*
X68898Y107874D01*
Y51968D02*
Y107874D01*
X22756Y25905D02*
X22835Y25984D01*
X-139173Y163976D02*
X-129528Y173622D01*
Y194095D01*
X134449Y125197D02*
X135905Y126653D01*
Y136693D01*
X141732Y142520D01*
X101732Y130781D02*
Y142520D01*
Y130781D02*
X104921Y127592D01*
Y125197D02*
Y127592D01*
X-119528Y194095D02*
X-107677Y182244D01*
Y163976D02*
Y182244D01*
Y163976D02*
X748D01*
X19055Y145669D01*
Y130584D02*
Y145669D01*
Y130584D02*
X22835Y126804D01*
Y124409D02*
Y126804D01*
X59055Y132883D02*
Y145669D01*
X52362Y126190D02*
X59055Y132883D01*
X52362Y124409D02*
Y126190D01*
X98425Y-48031D02*
Y-36457D01*
X104961Y-29921D01*
X68898Y-48031D02*
Y-34630D01*
X64961Y-30693D02*
X68898Y-34630D01*
X64961Y-30693D02*
Y-29921D01*
D32*
X123721Y252661D02*
D03*
X25121Y253161D02*
D03*
D33*
X90821Y258661D02*
D03*
X79921D02*
D03*
X69021D02*
D03*
X58121D02*
D03*
X96221Y247661D02*
D03*
X85321D02*
D03*
X74421D02*
D03*
X63521D02*
D03*
X-35433Y-17520D02*
D03*
Y-67520D02*
D03*
D34*
X52621Y247661D02*
D03*
D35*
X-107874Y-144488D02*
D03*
X-147244Y-135827D02*
D03*
D36*
X-103347Y-86614D02*
D03*
X-152559D02*
D03*
X-103347Y-47244D02*
D03*
X-152559D02*
D03*
X-127953Y-22638D02*
D03*
D37*
X-107677Y12402D02*
D03*
X-150000D02*
D03*
X-107677Y163976D02*
D03*
X-139173D02*
D03*
D38*
X-119528Y194095D02*
D03*
X-129528D02*
D03*
X101732Y142520D02*
D03*
X141732D02*
D03*
X19055Y145669D02*
D03*
X59055D02*
D03*
X64961Y-29921D02*
D03*
X104961D02*
D03*
D39*
X104921Y26772D02*
D03*
Y46457D02*
D03*
Y66142D02*
D03*
X134449Y26772D02*
D03*
Y46457D02*
D03*
Y66142D02*
D03*
X68898Y-146457D02*
D03*
Y-126772D02*
D03*
Y-107087D02*
D03*
X98425Y-146457D02*
D03*
Y-126772D02*
D03*
Y-107087D02*
D03*
X22835Y25984D02*
D03*
Y45669D02*
D03*
Y65354D02*
D03*
X52362Y25984D02*
D03*
Y45669D02*
D03*
Y65354D02*
D03*
D40*
X134449Y125197D02*
D03*
X104921D02*
D03*
X98425Y-48031D02*
D03*
X68898D02*
D03*
X52362Y124409D02*
D03*
X22835D02*
D03*
D41*
X-157087Y-209842D02*
D03*
X-127559D02*
D03*
X-98032D02*
D03*
X57087D02*
D03*
X86614D02*
D03*
X116142D02*
D03*
D42*
X-177165Y316339D02*
D03*
X177165D02*
D03*
Y-316339D02*
D03*
X-177165D02*
D03*
M02*
