G04*
G04 #@! TF.GenerationSoftware,Altium Limited,Altium Designer,20.1.11 (218)*
G04*
G04 Layer_Color=8388736*
%FSLAX25Y25*%
%MOIN*%
G70*
G04*
G04 #@! TF.SameCoordinates,B011805C-8237-4A5F-8DD1-956530F10964*
G04*
G04*
G04 #@! TF.FilePolarity,Negative*
G04*
G01*
G75*
%ADD12C,0.01000*%
%ADD14R,0.06787X0.10787*%
%ADD15C,0.06787*%
%ADD16C,0.07787*%
%ADD17R,0.07787X0.07787*%
%ADD18C,0.16787*%
%ADD19C,0.08787*%
%ADD20O,0.14567X0.10630*%
%ADD21C,0.12787*%
%ADD22C,0.10630*%
%ADD23O,0.10630X0.16535*%
%ADD24C,0.09843*%
%ADD25C,0.08661*%
%ADD26C,0.24410*%
D12*
X-216535Y-342520D02*
Y342520D01*
X216535D01*
Y-342520D02*
Y342520D01*
X-216535Y-342520D02*
X216535D01*
D14*
X-118783Y219291D02*
D03*
X-132283D02*
D03*
D15*
X-119528Y194095D02*
D03*
X-129528D02*
D03*
X101732Y142520D02*
D03*
X141732D02*
D03*
X19055Y145669D02*
D03*
X59055D02*
D03*
X64961Y-29921D02*
D03*
X104961D02*
D03*
D16*
X-35433Y-17520D02*
D03*
Y-67520D02*
D03*
X63521Y247661D02*
D03*
X74421D02*
D03*
X85321D02*
D03*
X96221D02*
D03*
X58121Y258661D02*
D03*
X69021D02*
D03*
X79921D02*
D03*
X90821D02*
D03*
D17*
X52621Y247661D02*
D03*
D18*
X25121Y253161D02*
D03*
X123721Y252661D02*
D03*
D19*
X-103347Y-86614D02*
D03*
X-152559D02*
D03*
X-103347Y-47244D02*
D03*
X-152559D02*
D03*
X-127953Y-22638D02*
D03*
D20*
X104921Y26772D02*
D03*
Y46457D02*
D03*
Y66142D02*
D03*
X134449Y26772D02*
D03*
Y46457D02*
D03*
Y66142D02*
D03*
X68898Y-146457D02*
D03*
Y-126772D02*
D03*
Y-107087D02*
D03*
X98425Y-146457D02*
D03*
Y-126772D02*
D03*
Y-107087D02*
D03*
X22835Y25984D02*
D03*
Y45669D02*
D03*
Y65354D02*
D03*
X52362Y25984D02*
D03*
Y45669D02*
D03*
Y65354D02*
D03*
D21*
X134449Y125197D02*
D03*
X104921D02*
D03*
X98425Y-48031D02*
D03*
X68898D02*
D03*
X52362Y124409D02*
D03*
X22835D02*
D03*
D22*
X-21063Y-95276D02*
D03*
X-50591D02*
D03*
D23*
X-157087Y-209842D02*
D03*
X-127559D02*
D03*
X-98032D02*
D03*
X57087D02*
D03*
X86614D02*
D03*
X116142D02*
D03*
D24*
X-139173Y163976D02*
D03*
X-107677D02*
D03*
X-150000Y12402D02*
D03*
X-107677D02*
D03*
D25*
X-147244Y-135827D02*
D03*
X-107874Y-144488D02*
D03*
D26*
X-177165Y316339D02*
D03*
X177165D02*
D03*
Y-316339D02*
D03*
X-177165D02*
D03*
M02*
