G04*
G04 #@! TF.GenerationSoftware,Altium Limited,Altium Designer,20.1.14 (287)*
G04*
G04 Layer_Physical_Order=1*
G04 Layer_Color=65280*
%FSLAX25Y25*%
%MOIN*%
G70*
G04*
G04 #@! TF.SameCoordinates,1EE4E3D8-8180-470A-B355-4EF36BE04676*
G04*
G04*
G04 #@! TF.FilePolarity,Positive*
G04*
G01*
G75*
%ADD10C,0.01000*%
%ADD22C,0.09843*%
%ADD28R,0.06000X0.10000*%
%ADD29C,0.01500*%
%ADD30C,0.05906*%
%ADD31C,0.03150*%
%ADD32C,0.16000*%
%ADD33C,0.07000*%
%ADD34R,0.07000X0.07000*%
%ADD35C,0.07874*%
%ADD36C,0.08000*%
%ADD37C,0.09055*%
%ADD38C,0.06000*%
%ADD39O,0.13780X0.09843*%
%ADD40C,0.12000*%
%ADD41O,0.09843X0.15748*%
%ADD42C,0.23622*%
D10*
X-216535Y-342520D02*
Y342520D01*
X216535D01*
Y-342520D02*
Y342520D01*
X-216535Y-342520D02*
X216535D01*
D22*
X-21063Y-95276D02*
D03*
X-50591D02*
D03*
D28*
X-118783Y219291D02*
D03*
X-132283D02*
D03*
D29*
X-55425Y259087D02*
X-52925Y274587D01*
X-55425Y259087D02*
Y276587D01*
X-75925Y269087D02*
X-74425Y275587D01*
X-75925Y269087D02*
Y277087D01*
X-81425D02*
X-75925D01*
X-84925Y284587D02*
X-81425Y277087D01*
X-88425Y269087D02*
X-84925Y284587D01*
X-92425D02*
X-88425Y269087D01*
X-95425Y276587D02*
X-92425Y284587D01*
X-96925Y276587D02*
X-95425D01*
X-65925Y269087D02*
X-57925D01*
X-67925Y276587D02*
X-65925Y269087D01*
X-72425Y276587D02*
X-67925D01*
X-74425Y275587D02*
X-72425Y276587D01*
X-57925Y269087D02*
X-55425Y276587D01*
X-57425Y284587D02*
X-55425Y276587D01*
X-65925Y284587D02*
X-57425D01*
X-67925Y276587D02*
X-65925Y284587D01*
D30*
X-76968Y-17520D02*
X-35433D01*
X-82087Y-22638D02*
X-76968Y-17520D01*
X-127953Y-22638D02*
X-82087D01*
X-147244Y-157874D02*
Y-135827D01*
Y-157874D02*
X-132283Y-172835D01*
X121653D02*
X129528Y-164961D01*
X-132283Y-172835D02*
X121653D01*
X129528Y-164961D02*
Y-142520D01*
X98425Y-126772D02*
X113779D01*
X129528Y-142520D01*
D31*
X90821Y257620D02*
Y258661D01*
Y257620D02*
X95485Y252956D01*
Y248398D02*
Y252956D01*
Y248398D02*
X96221Y247661D01*
Y163508D02*
Y247661D01*
Y163508D02*
X99887Y159843D01*
X101732Y142520D02*
Y157998D01*
X99887Y159843D02*
X101732Y157998D01*
X33228Y159843D02*
X99887D01*
X6299Y222441D02*
X72047D01*
X85321Y235715D02*
Y247661D01*
X72047Y222441D02*
X85321Y235715D01*
X73685Y246925D02*
X74421Y247661D01*
X73685Y240220D02*
Y246925D01*
X66929Y233465D02*
X73685Y240220D01*
X-11811Y225590D02*
X-3937Y233465D01*
X66929D01*
X-11811Y43701D02*
Y225590D01*
X5906Y25984D02*
X22835D01*
X-11811Y43701D02*
X5906Y25984D01*
X-394Y74803D02*
Y215748D01*
X6299Y222441D01*
X9055Y65354D02*
X22835D01*
X-394Y74803D02*
X9055Y65354D01*
X19055Y145669D02*
X33228Y159843D01*
X85433Y46457D02*
X104921D01*
X64961Y25984D02*
X85433Y46457D01*
X52362Y25984D02*
X64961D01*
X104921Y66142D02*
Y76181D01*
X96850Y84252D02*
X104921Y76181D01*
X46063Y84252D02*
X96850D01*
X37795Y60630D02*
Y75984D01*
X46063Y84252D01*
X22835Y45669D02*
X22992D01*
X26084Y48761D01*
Y48918D01*
X37795Y60630D01*
X-119156Y218919D02*
X-118783Y219291D01*
X-119156Y194466D02*
Y218919D01*
X-119528Y194095D02*
X-119156Y194466D01*
X-129528Y194095D02*
Y214535D01*
X-132283Y217291D02*
X-129528Y214535D01*
X-132283Y217291D02*
Y219291D01*
D32*
X123721Y252661D02*
D03*
X25121Y253161D02*
D03*
D33*
X90821Y258661D02*
D03*
X79921D02*
D03*
X69021D02*
D03*
X58121D02*
D03*
X96221Y247661D02*
D03*
X85321D02*
D03*
X74421D02*
D03*
X63521D02*
D03*
X-35433Y-17520D02*
D03*
Y-67520D02*
D03*
D34*
X52621Y247661D02*
D03*
D35*
X-107874Y-144488D02*
D03*
X-147244Y-135827D02*
D03*
D36*
X-103347Y-86614D02*
D03*
X-152559D02*
D03*
X-103347Y-47244D02*
D03*
X-152559D02*
D03*
X-127953Y-22638D02*
D03*
D37*
X-107677Y12402D02*
D03*
X-150000D02*
D03*
X-107677Y163976D02*
D03*
X-139173D02*
D03*
D38*
X-119528Y194095D02*
D03*
X-129528D02*
D03*
X101732Y142520D02*
D03*
X141732D02*
D03*
X19055Y145669D02*
D03*
X59055D02*
D03*
X64961Y-29921D02*
D03*
X104961D02*
D03*
D39*
X104921Y26772D02*
D03*
Y46457D02*
D03*
Y66142D02*
D03*
X134449Y26772D02*
D03*
Y46457D02*
D03*
Y66142D02*
D03*
X68898Y-146457D02*
D03*
Y-126772D02*
D03*
Y-107087D02*
D03*
X98425Y-146457D02*
D03*
Y-126772D02*
D03*
Y-107087D02*
D03*
X22835Y25984D02*
D03*
Y45669D02*
D03*
Y65354D02*
D03*
X52362Y25984D02*
D03*
Y45669D02*
D03*
Y65354D02*
D03*
D40*
X134449Y125197D02*
D03*
X104921D02*
D03*
X98425Y-48031D02*
D03*
X68898D02*
D03*
X52362Y124409D02*
D03*
X22835D02*
D03*
D41*
X-157087Y-209842D02*
D03*
X-127559D02*
D03*
X-98032D02*
D03*
X57087D02*
D03*
X86614D02*
D03*
X116142D02*
D03*
D42*
X-177165Y316339D02*
D03*
X177165D02*
D03*
Y-316339D02*
D03*
X-177165D02*
D03*
M02*
