G04*
G04 #@! TF.GenerationSoftware,Altium Limited,Altium Designer,20.1.14 (287)*
G04*
G04 Layer_Color=3326705*
%FSLAX25Y25*%
%MOIN*%
G70*
G04*
G04 #@! TF.SameCoordinates,1EE4E3D8-8180-470A-B355-4EF36BE04676*
G04*
G04*
G04 #@! TF.FilePolarity,Positive*
G04*
G01*
G75*
%ADD10C,0.01000*%
%ADD11C,0.01968*%
%ADD12C,0.00984*%
%ADD13C,0.00800*%
%ADD14C,0.03937*%
D10*
X-72835Y-66929D02*
G03*
X-72835Y-66929I-55118J0D01*
G01*
X-163386Y316339D02*
G03*
X-163386Y316339I-13780J0D01*
G01*
X190945D02*
G03*
X190945Y316339I-13780J0D01*
G01*
Y-316339D02*
G03*
X190945Y-316339I-13780J0D01*
G01*
X-163386D02*
G03*
X-163386Y-316339I-13780J0D01*
G01*
X12621Y278661D02*
X136221D01*
X12621Y227661D02*
Y278661D01*
X-169882Y-129724D02*
X-85236D01*
X-169882Y-150591D02*
Y-129724D01*
Y-150591D02*
X-85236D01*
Y-129724D01*
X94095Y18898D02*
Y135039D01*
Y18898D02*
X145276D01*
Y135039D01*
X94095D02*
X145276D01*
X58071Y-154331D02*
Y-38189D01*
Y-154331D02*
X109252D01*
Y-38189D01*
X58071D02*
X109252D01*
X12008Y18110D02*
Y134252D01*
Y18110D02*
X63189D01*
Y134252D01*
X12008D02*
X63189D01*
X-113784Y212291D02*
Y226291D01*
X-137284Y212291D02*
Y226291D01*
X-121283D02*
X-113784D01*
X-121283Y212291D02*
X-113784D01*
X-137284D02*
X-129783D01*
X-137284Y226291D02*
X-129783D01*
X-139613Y144291D02*
Y148290D01*
X-141613Y146291D02*
X-137614D01*
X-142612Y150289D02*
X-138613D01*
X-136614Y152289D01*
X-138613Y154288D01*
X-142612D01*
X-106739Y145276D02*
Y149274D01*
X-109738Y151274D02*
X-105739D01*
X-103740Y153273D01*
X-105739Y155272D01*
X-109738D01*
X-147441Y19094D02*
X-151440D01*
X-153439Y21094D01*
X-151440Y23093D01*
X-147441D01*
X-150440D01*
Y19094D01*
X-152439Y29091D02*
X-153439Y28092D01*
Y26092D01*
X-152439Y25093D01*
X-148441D01*
X-147441Y26092D01*
Y28092D01*
X-148441Y29091D01*
X-147441Y31091D02*
X-151440Y35089D01*
X-147441Y37089D02*
X-153439D01*
X-147441Y41087D01*
X-153439D01*
X-104331Y19882D02*
X-108329D01*
X-110329Y21881D01*
X-108329Y23881D01*
X-104331D01*
X-107330D01*
Y19882D01*
X-109329Y29879D02*
X-110329Y28879D01*
Y26880D01*
X-109329Y25880D01*
X-105330D01*
X-104331Y26880D01*
Y28879D01*
X-105330Y29879D01*
X-104331Y31878D02*
X-108329Y35877D01*
X-110329Y37876D02*
X-104331D01*
Y41875D01*
X-216535Y-342520D02*
Y342520D01*
X216535D01*
Y-342520D02*
Y342520D01*
X-216535Y-342520D02*
X216535D01*
D11*
X-119393Y187385D02*
G03*
X-119409Y200804I-134J6709D01*
G01*
X-119393Y181061D02*
G03*
X-119454Y207152I-5111J13034D01*
G01*
X-119409Y200804D02*
Y207152D01*
X-119393Y181061D02*
Y187385D01*
X-117835Y182283D02*
Y187402D01*
X-116260Y183071D02*
Y188189D01*
X-114685Y184646D02*
Y188976D01*
X-117835Y200787D02*
Y205906D01*
X-116260Y200000D02*
Y205118D01*
X-114685Y198819D02*
Y203150D01*
X-113110Y197244D02*
Y201575D01*
Y186221D02*
Y190551D01*
X-112323Y188976D02*
Y197244D01*
X68504Y289369D02*
X65880D01*
X67192D01*
Y282809D01*
X65880Y281497D01*
X64568D01*
X63256Y282809D01*
X71128Y281497D02*
X73752D01*
X72440D01*
Y289369D01*
X71128Y288057D01*
X-16930Y-47767D02*
X-24802D01*
Y-43832D01*
X-23490Y-42520D01*
X-20866D01*
X-19554Y-43832D01*
Y-47767D01*
Y-45143D02*
X-16930Y-42520D01*
Y-39896D02*
Y-37272D01*
Y-38584D01*
X-24802D01*
X-23490Y-39896D01*
X-46585Y-127164D02*
Y-119293D01*
X-42649D01*
X-41337Y-120605D01*
Y-123228D01*
X-42649Y-124540D01*
X-46585D01*
X-33466Y-119293D02*
X-38713D01*
Y-127164D01*
X-33466D01*
X-38713Y-123228D02*
X-36090D01*
X-30842Y-127164D02*
X-28218D01*
X-29530D01*
Y-119293D01*
X-30842Y-120605D01*
X115094Y156298D02*
Y148426D01*
X119030D01*
X120342Y149738D01*
Y154986D01*
X119030Y156298D01*
X115094D01*
X122966Y154986D02*
X124277Y156298D01*
X126901D01*
X128213Y154986D01*
Y153674D01*
X126901Y152362D01*
X125589D01*
X126901D01*
X128213Y151050D01*
Y149738D01*
X126901Y148426D01*
X124277D01*
X122966Y149738D01*
X33204Y159054D02*
Y151182D01*
X37140D01*
X38452Y152494D01*
Y157742D01*
X37140Y159054D01*
X33204D01*
X46323Y151182D02*
X41076D01*
X46323Y156430D01*
Y157742D01*
X45011Y159054D01*
X42388D01*
X41076Y157742D01*
X79004Y-16143D02*
Y-24014D01*
X82940D01*
X84252Y-22703D01*
Y-17455D01*
X82940Y-16143D01*
X79004D01*
X86876Y-24014D02*
X89500D01*
X88188D01*
Y-16143D01*
X86876Y-17455D01*
X-191467Y-134647D02*
Y-139895D01*
X-188843Y-142518D01*
X-186219Y-139895D01*
Y-134647D01*
X-183595Y-142518D02*
Y-134647D01*
X-179660D01*
X-178348Y-135959D01*
Y-138583D01*
X-179660Y-139895D01*
X-183595D01*
X-180972D02*
X-178348Y-142518D01*
X-175724D02*
X-173100D01*
X-174412D01*
Y-134647D01*
X-175724Y-135959D01*
X-91074Y81497D02*
Y89369D01*
X-88451Y86745D01*
X-85827Y89369D01*
Y81497D01*
X-83203D02*
X-80579D01*
X-81891D01*
Y89369D01*
X-83203Y88057D01*
X-190945Y-39371D02*
X-196193D01*
Y-43307D01*
X-193569D01*
X-196193D01*
Y-47243D01*
X-188321D02*
X-185697D01*
X-187009D01*
Y-39371D01*
X-188321Y-40683D01*
X-128477Y238057D02*
X-129789Y239369D01*
X-132413D01*
X-133725Y238057D01*
Y232809D01*
X-132413Y231497D01*
X-129789D01*
X-128477Y232809D01*
X-120606Y231497D02*
X-125853D01*
X-120606Y236745D01*
Y238057D01*
X-121918Y239369D01*
X-124541D01*
X-125853Y238057D01*
X-145276Y196718D02*
X-146588Y198030D01*
X-149211D01*
X-150523Y196718D01*
Y191471D01*
X-149211Y190159D01*
X-146588D01*
X-145276Y191471D01*
X-142652Y190159D02*
X-140028D01*
X-141340D01*
Y198030D01*
X-142652Y196718D01*
X110371Y7875D02*
Y15747D01*
X114307D01*
X115619Y14435D01*
Y11811D01*
X114307Y10499D01*
X110371D01*
X112995D02*
X115619Y7875D01*
X123490Y15747D02*
X118242D01*
Y7875D01*
X123490D01*
X118242Y11811D02*
X120866D01*
X126114Y14435D02*
X127426Y15747D01*
X130050D01*
X131361Y14435D01*
Y13123D01*
X130050Y11811D01*
X128738D01*
X130050D01*
X131361Y10499D01*
Y9187D01*
X130050Y7875D01*
X127426D01*
X126114Y9187D01*
X73757Y-164172D02*
Y-156300D01*
X77692D01*
X79004Y-157612D01*
Y-160236D01*
X77692Y-161548D01*
X73757D01*
X76380D02*
X79004Y-164172D01*
X86876Y-156300D02*
X81628D01*
Y-164172D01*
X86876D01*
X81628Y-160236D02*
X84252D01*
X94747Y-164172D02*
X89500D01*
X94747Y-158924D01*
Y-157612D01*
X93435Y-156300D01*
X90812D01*
X89500Y-157612D01*
X25856Y8269D02*
Y16140D01*
X29792D01*
X31104Y14829D01*
Y12205D01*
X29792Y10893D01*
X25856D01*
X28480D02*
X31104Y8269D01*
X38975Y16140D02*
X33727D01*
Y8269D01*
X38975D01*
X33727Y12205D02*
X36351D01*
X41599Y8269D02*
X44223D01*
X42911D01*
Y16140D01*
X41599Y14829D01*
X143440Y-206694D02*
X140817D01*
X139505Y-208006D01*
Y-213254D01*
X140817Y-214566D01*
X143440D01*
X144752Y-213254D01*
Y-208006D01*
X143440Y-206694D01*
X147376D02*
Y-213254D01*
X148688Y-214566D01*
X151312D01*
X152624Y-213254D01*
Y-206694D01*
X155248D02*
X160495D01*
X157871D01*
Y-214566D01*
X-188974Y-208269D02*
X-186351D01*
X-187663D01*
Y-216141D01*
X-188974D01*
X-186351D01*
X-182415D02*
Y-208269D01*
X-177167Y-216141D01*
Y-208269D01*
D12*
X-119415Y207137D02*
G03*
X-119393Y181061I-5089J-13042D01*
G01*
X-100197Y5512D02*
Y170866D01*
X-187992Y5512D02*
X-100197D01*
X-187992Y170866D02*
X-100197D01*
X-187992Y5512D02*
Y170866D01*
D13*
X12621Y227661D02*
X136221D01*
Y278661D01*
X-6299Y-115748D02*
Y-77165D01*
X-65354Y-115748D02*
X-6299D01*
X-65354D02*
Y-77165D01*
X-6299D01*
X-54528Y-80315D02*
Y-77165D01*
Y-80315D02*
X-46654D01*
Y-77165D01*
X-25000Y-80315D02*
Y-77165D01*
Y-80315D02*
X-17126D01*
Y-77165D01*
X-35433Y-62520D02*
Y-56520D01*
Y-28520D02*
Y-22520D01*
X-43433Y-56520D02*
X-27433D01*
Y-28520D01*
X-43433D02*
X-27433D01*
X-43433Y-56520D02*
Y-28520D01*
X126732Y140020D02*
Y145020D01*
X114232Y140020D02*
X129232D01*
Y145020D01*
X114232D02*
X129232D01*
X114232Y140020D02*
Y145020D01*
X107732Y142520D02*
X114232D01*
X129232D02*
X135732D01*
X44055Y143169D02*
Y148169D01*
X31555Y143169D02*
X46555D01*
Y148169D01*
X31555D02*
X46555D01*
X31555Y143169D02*
Y148169D01*
X25055Y145669D02*
X31555D01*
X46555D02*
X53055D01*
X89961Y-32421D02*
Y-27421D01*
X77461Y-32421D02*
X92461D01*
Y-27421D01*
X77461D02*
X92461D01*
X77461Y-32421D02*
Y-27421D01*
X70961Y-29921D02*
X77461D01*
X92461D02*
X98961D01*
X-161024Y-227559D02*
Y-224410D01*
X-153150D01*
Y-227559D02*
Y-224410D01*
X-171850Y-227559D02*
Y-188976D01*
X-83268D01*
Y-227559D02*
Y-188976D01*
X-171850Y-227559D02*
X-83268D01*
X-94095Y-227559D02*
Y-224410D01*
X-101969D02*
X-94095D01*
X-101969Y-227559D02*
Y-224410D01*
X-123622Y-227559D02*
Y-224410D01*
X-131496D02*
X-123622D01*
X-131496Y-227559D02*
Y-224410D01*
X53150Y-227559D02*
Y-224410D01*
X61024D01*
Y-227559D02*
Y-224410D01*
X42323Y-227559D02*
Y-188976D01*
X130905D01*
Y-227559D02*
Y-188976D01*
X42323Y-227559D02*
X130905D01*
X120079Y-227559D02*
Y-224410D01*
X112205D02*
X120079D01*
X112205Y-227559D02*
Y-224410D01*
X90551Y-227559D02*
Y-224410D01*
X82677D02*
X90551D01*
X82677Y-227559D02*
Y-224410D01*
D14*
X-78347Y317319D02*
Y305512D01*
X-74411Y309448D01*
X-70475Y305512D01*
Y317319D01*
X-66539Y305512D02*
X-62603D01*
X-64571D01*
Y317319D01*
X-66539D01*
X-56700Y305512D02*
Y317319D01*
X-50796D01*
X-48828Y315351D01*
Y311415D01*
X-50796Y309448D01*
X-56700D01*
X-44893Y317319D02*
Y305512D01*
Y309448D01*
X-37021Y317319D01*
X-42925Y311415D01*
X-37021Y305512D01*
X-33086D02*
X-29150D01*
X-31118D01*
Y317319D01*
X-33086Y315351D01*
X112205Y-247638D02*
Y-235831D01*
X120076Y-247638D01*
Y-235831D01*
X51181D02*
Y-247638D01*
X59053D01*
X75984D02*
Y-235831D01*
X81888D01*
X83856Y-237799D01*
Y-241734D01*
X81888Y-243702D01*
X75984D01*
X95663Y-235831D02*
X87791D01*
Y-247638D01*
X95663D01*
X87791Y-241734D02*
X91727D01*
X-138189Y-247638D02*
Y-235831D01*
X-132285D01*
X-130317Y-237799D01*
Y-241734D01*
X-132285Y-243702D01*
X-138189D01*
X-118510Y-235831D02*
X-126382D01*
Y-247638D01*
X-118510D01*
X-126382Y-241734D02*
X-122446D01*
X-101575Y-235831D02*
Y-247638D01*
X-93703D01*
X-161024D02*
Y-235831D01*
X-153152Y-247638D01*
Y-235831D01*
M02*
