M48
;Layer_Color=9474304
;FILE_FORMAT=2:5
INCH,LZ
;TYPE=PLATED
T1F00S00C0.03200
T2F00S00C0.03937
T3F00S00C0.04000
T4F00S00C0.04724
T5F00S00C0.05118
T6F00S00C0.05906
T7F00S00C0.06000
T8F00S00C0.13780
%
T01
X0064961Y-0029921
X0104961
X0141732Y014252
X0101732
X0059055Y0145669
X0019055
X-0119528Y0194095
X-0129528
T02
X-0040827Y-0095276
X-0030827
X-0016929Y0025827
Y0035827
T03
X-0152559Y-0086614
Y-0047244
X-0127953Y-0022638
X-0103347Y-0047244
Y-0086614
X-0062008Y-0072047
X-0012008
X0047992Y0176772
X0057992
X0067992
X0077992
X-0017323Y0090866
Y0080866
Y0070866
T04
X-0147244Y-0135827
X-0107874Y-0144488
T05
X-015Y0012402
X-0107677
Y0163976
X-0139173
T06
X0057087Y-0209842
X0086614
X0116142
X-0098032
X-0127559
X-0157087
T07
X0068898Y-0146457
Y-0126772
X0098425
Y-0146457
Y-0107087
X0068898
Y-0048031
X0098425
X0104921Y0026772
X0134449
X0052362Y0025984
X0022835
Y0045669
Y0065354
X0052362
Y0045669
X0104921Y0046457
Y0066142
X0134449
Y0046457
Y0125197
X0104921
X0052362Y0124409
X0022835
T08
X-0177165Y-0316339
X0177165
X-0177165Y0316339
X0177165
M30
