G04*
G04 #@! TF.GenerationSoftware,Altium Limited,Altium Designer,20.1.11 (218)*
G04*
G04 Layer_Color=16711935*
%FSLAX25Y25*%
%MOIN*%
G70*
G04*
G04 #@! TF.SameCoordinates,48E65404-B400-47D1-B387-DC0D371750F1*
G04*
G04*
G04 #@! TF.FilePolarity,Positive*
G04*
G01*
G75*
%ADD10C,0.01000*%
%ADD11C,0.00984*%
%ADD12C,0.01968*%
%ADD13C,0.00800*%
%ADD14C,0.02000*%
%ADD15C,0.00591*%
%ADD16C,0.00787*%
D10*
X-72835Y-66929D02*
G03*
X-72835Y-66929I-55118J0D01*
G01*
X-163386Y316339D02*
G03*
X-163386Y316339I-13780J0D01*
G01*
X190945D02*
G03*
X190945Y316339I-13780J0D01*
G01*
Y-316339D02*
G03*
X190945Y-316339I-13780J0D01*
G01*
X-163386D02*
G03*
X-163386Y-316339I-13780J0D01*
G01*
X58071Y-154331D02*
Y-38189D01*
Y-154331D02*
X109252D01*
Y-38189D01*
X58071D02*
X109252D01*
X12008Y18110D02*
Y134252D01*
Y18110D02*
X63189D01*
Y134252D01*
X12008D02*
X63189D01*
X94095Y18898D02*
Y135039D01*
Y18898D02*
X145276D01*
Y135039D01*
X94095D02*
X145276D01*
X47992Y169272D02*
X77992D01*
Y164961D02*
Y169272D01*
X47992Y164961D02*
Y169272D01*
X42913Y188583D02*
X83071D01*
Y164961D02*
Y188583D01*
X42913Y164961D02*
X83071D01*
X-9823Y70866D02*
Y92866D01*
X-4823D01*
X-9823Y70866D02*
X-4823D01*
X-28823Y64866D02*
Y95866D01*
X-4823D01*
Y64866D02*
Y95866D01*
X-85236Y-150591D02*
Y-129724D01*
X-169882Y-150591D02*
X-85236D01*
X-169882D02*
Y-129724D01*
X-85236D01*
X-137284Y226291D02*
X-129783D01*
X-137284Y212291D02*
X-129783D01*
X-121283D02*
X-113784D01*
X-121283Y226291D02*
X-113784D01*
X-137284Y212291D02*
Y226291D01*
X-113784Y212291D02*
Y226291D01*
X-104331Y19882D02*
X-108329D01*
X-110329Y21881D01*
X-108329Y23881D01*
X-104331D01*
X-107330D01*
Y19882D01*
X-109329Y29879D02*
X-110329Y28879D01*
Y26880D01*
X-109329Y25880D01*
X-105330D01*
X-104331Y26880D01*
Y28879D01*
X-105330Y29879D01*
X-104331Y31878D02*
X-108329Y35877D01*
X-110329Y37876D02*
X-104331D01*
Y41875D01*
X-147441Y19094D02*
X-151440D01*
X-153439Y21094D01*
X-151440Y23093D01*
X-147441D01*
X-150440D01*
Y19094D01*
X-152439Y29091D02*
X-153439Y28092D01*
Y26092D01*
X-152439Y25093D01*
X-148441D01*
X-147441Y26092D01*
Y28092D01*
X-148441Y29091D01*
X-147441Y31091D02*
X-151440Y35089D01*
X-147441Y37089D02*
X-153439D01*
X-147441Y41087D01*
X-153439D01*
X-106739Y145276D02*
Y149274D01*
X-109738Y151274D02*
X-105739D01*
X-103740Y153273D01*
X-105739Y155272D01*
X-109738D01*
X-139613Y144291D02*
Y148290D01*
X-141613Y146291D02*
X-137614D01*
X-142612Y150289D02*
X-138613D01*
X-136614Y152289D01*
X-138613Y154288D01*
X-142612D01*
X-216535Y-342520D02*
Y342520D01*
X216535D01*
Y-342520D02*
Y342520D01*
X-216535Y-342520D02*
X216535D01*
D11*
X-119415Y207137D02*
G03*
X-119393Y181061I-5089J-13042D01*
G01*
X-40827Y-102776D02*
X-30827D01*
Y-107087D02*
Y-102776D01*
X-40827Y-107087D02*
Y-102776D01*
X-46063Y-83465D02*
X-25591D01*
Y-107087D02*
Y-83465D01*
X-46063Y-107087D02*
X-25591D01*
X-5118Y20591D02*
Y41063D01*
X-28740D02*
X-5118D01*
X-28740Y20591D02*
Y41063D01*
X-9429Y25827D02*
X-5118D01*
X-9429Y35827D02*
X-5118D01*
X-9429Y25827D02*
Y35827D01*
X-187992Y5512D02*
Y170866D01*
X-100197D01*
X-187992Y5512D02*
X-100197D01*
Y170866D01*
D12*
X-119393Y181061D02*
G03*
X-119454Y207152I-5111J13034D01*
G01*
X-119393Y187385D02*
G03*
X-119409Y200804I-134J6709D01*
G01*
X-46457Y-107087D02*
Y-83465D01*
X-28740Y20197D02*
X-5118D01*
X-28823Y64866D02*
X-4823D01*
X-112323Y188976D02*
Y197244D01*
X-113110Y186221D02*
Y190551D01*
Y197244D02*
Y201575D01*
X-114685Y198819D02*
Y203150D01*
X-116260Y200000D02*
Y205118D01*
X-117835Y200787D02*
Y205906D01*
X-114685Y184646D02*
Y188976D01*
X-116260Y183071D02*
Y188189D01*
X-117835Y182283D02*
Y187402D01*
X-119393Y181061D02*
Y187385D01*
X-119409Y200804D02*
Y207152D01*
D13*
X-161024Y-227559D02*
Y-224410D01*
X-153150D01*
Y-227559D02*
Y-224410D01*
X-171850Y-227559D02*
Y-188976D01*
X-83268D01*
Y-227559D02*
Y-188976D01*
X-171850Y-227559D02*
X-83268D01*
X-94095Y-227559D02*
Y-224410D01*
X-101969D02*
X-94095D01*
X-101969Y-227559D02*
Y-224410D01*
X-123622Y-227559D02*
Y-224410D01*
X-131496D02*
X-123622D01*
X-131496Y-227559D02*
Y-224410D01*
X53150Y-227559D02*
Y-224410D01*
X61024D01*
Y-227559D02*
Y-224410D01*
X42323Y-227559D02*
Y-188976D01*
X130905D01*
Y-227559D02*
Y-188976D01*
X42323Y-227559D02*
X130905D01*
X120079Y-227559D02*
Y-224410D01*
X112205D02*
X120079D01*
X112205Y-227559D02*
Y-224410D01*
X90551Y-227559D02*
Y-224410D01*
X82677D02*
X90551D01*
X82677Y-227559D02*
Y-224410D01*
X-51008Y-80047D02*
X-23008D01*
X-51008D02*
Y-64047D01*
X-23008D01*
Y-80047D02*
Y-64047D01*
X-57008Y-72047D02*
X-51008D01*
X-23008D02*
X-17008D01*
X89961Y-32421D02*
Y-27421D01*
X77461Y-32421D02*
X92461D01*
Y-27421D01*
X77461D02*
X92461D01*
X77461Y-32421D02*
Y-27421D01*
X70961Y-29921D02*
X77461D01*
X92461D02*
X98961D01*
X126732Y140020D02*
Y145020D01*
X114232Y140020D02*
X129232D01*
Y145020D01*
X114232D02*
X129232D01*
X114232Y140020D02*
Y145020D01*
X107732Y142520D02*
X114232D01*
X129232D02*
X135732D01*
X44055Y143169D02*
Y148169D01*
X31555Y143169D02*
X46555D01*
Y148169D01*
X31555D02*
X46555D01*
X31555Y143169D02*
Y148169D01*
X25055Y145669D02*
X31555D01*
X46555D02*
X53055D01*
D14*
X42520Y164961D02*
Y188583D01*
D15*
X-39107Y-60039D02*
Y-55709D01*
X-36942D01*
X-36220Y-56431D01*
Y-57874D01*
X-36942Y-58596D01*
X-39107D01*
X-37664D02*
X-36220Y-60039D01*
X-34777D02*
X-33334D01*
X-34056D01*
Y-55709D01*
X-34777Y-56431D01*
X-39876Y-97449D02*
Y-93120D01*
X-37711D01*
X-36989Y-93841D01*
Y-95284D01*
X-37711Y-96006D01*
X-39876D01*
X-32660Y-93120D02*
X-35546D01*
Y-97449D01*
X-32660D01*
X-35546Y-95284D02*
X-34103D01*
X118046Y151377D02*
Y147048D01*
X120210D01*
X120932Y147769D01*
Y150656D01*
X120210Y151377D01*
X118046D01*
X124540Y147048D02*
Y151377D01*
X122375Y149213D01*
X125261D01*
X35369Y154921D02*
Y150591D01*
X37533D01*
X38255Y151313D01*
Y154199D01*
X37533Y154921D01*
X35369D01*
X42584Y150591D02*
X39698D01*
X42584Y153478D01*
Y154199D01*
X41863Y154921D01*
X40420D01*
X39698Y154199D01*
X81366Y-21457D02*
Y-25787D01*
X83530D01*
X84252Y-25065D01*
Y-22179D01*
X83530Y-21457D01*
X81366D01*
X85695Y-25787D02*
X87138D01*
X86417D01*
Y-21457D01*
X85695Y-22179D01*
X-132617Y-137988D02*
Y-140875D01*
X-131174Y-142318D01*
X-129731Y-140875D01*
Y-137988D01*
X-128287Y-142318D02*
Y-137988D01*
X-126123D01*
X-125401Y-138710D01*
Y-140153D01*
X-126123Y-140875D01*
X-128287D01*
X-126844D02*
X-125401Y-142318D01*
X-123958D02*
X-122515D01*
X-123237D01*
Y-137988D01*
X-123958Y-138710D01*
X-146944Y86002D02*
Y90331D01*
X-145501Y88888D01*
X-144058Y90331D01*
Y86002D01*
X-142615D02*
X-141172D01*
X-141894D01*
Y90331D01*
X-142615Y89610D01*
X-127915Y-64779D02*
X-130802D01*
Y-66944D01*
X-129358D01*
X-130802D01*
Y-69109D01*
X-126472D02*
X-125029D01*
X-125751D01*
Y-64779D01*
X-126472Y-65501D01*
X-126294Y220762D02*
X-127016Y221484D01*
X-128459D01*
X-129180Y220762D01*
Y217876D01*
X-128459Y217154D01*
X-127016D01*
X-126294Y217876D01*
X-121965Y217154D02*
X-124851D01*
X-121965Y220040D01*
Y220762D01*
X-122686Y221484D01*
X-124129D01*
X-124851Y220762D01*
X-124259Y195575D02*
X-124980Y196296D01*
X-126423D01*
X-127145Y195575D01*
Y192689D01*
X-126423Y191967D01*
X-124980D01*
X-124259Y192689D01*
X-122816Y191967D02*
X-121372D01*
X-122094D01*
Y196296D01*
X-122816Y195575D01*
X-30966Y44686D02*
Y49015D01*
X-28802D01*
X-28080Y48294D01*
Y46850D01*
X-28802Y46129D01*
X-30966D01*
X-29523D02*
X-28080Y44686D01*
X-23751Y49015D02*
X-26637D01*
Y44686D01*
X-23751D01*
X-26637Y46850D02*
X-25194D01*
X-22308Y49015D02*
Y44686D01*
X-20143D01*
X-19422Y45407D01*
Y48294D01*
X-20143Y49015D01*
X-22308D01*
X-17978D02*
Y44686D01*
X-15092D01*
X-13649D02*
Y47572D01*
X-12206Y49015D01*
X-10763Y47572D01*
Y44686D01*
Y46850D01*
X-13649D01*
X-9320Y44686D02*
Y49015D01*
X-7877Y47572D01*
X-6434Y49015D01*
Y44686D01*
X-4991D02*
Y49015D01*
X-2826D01*
X-2104Y48294D01*
Y46850D01*
X-2826Y46129D01*
X-4991D01*
X115094Y9646D02*
Y13976D01*
X117258D01*
X117980Y13254D01*
Y11811D01*
X117258Y11090D01*
X115094D01*
X116537D02*
X117980Y9646D01*
X122309Y13976D02*
X119423D01*
Y9646D01*
X122309D01*
X119423Y11811D02*
X120866D01*
X123752Y13254D02*
X124474Y13976D01*
X125917D01*
X126639Y13254D01*
Y12533D01*
X125917Y11811D01*
X125196D01*
X125917D01*
X126639Y11090D01*
Y10368D01*
X125917Y9646D01*
X124474D01*
X123752Y10368D01*
X78480Y-162401D02*
Y-158072D01*
X80644D01*
X81366Y-158793D01*
Y-160236D01*
X80644Y-160958D01*
X78480D01*
X79923D02*
X81366Y-162401D01*
X85695Y-158072D02*
X82809D01*
Y-162401D01*
X85695D01*
X82809Y-160236D02*
X84252D01*
X90024Y-162401D02*
X87138D01*
X90024Y-159515D01*
Y-158793D01*
X89303Y-158072D01*
X87860D01*
X87138Y-158793D01*
X29989Y10040D02*
Y14369D01*
X32153D01*
X32875Y13648D01*
Y12205D01*
X32153Y11483D01*
X29989D01*
X31432D02*
X32875Y10040D01*
X37204Y14369D02*
X34318D01*
Y10040D01*
X37204D01*
X34318Y12205D02*
X35761D01*
X38647Y10040D02*
X40090D01*
X39369D01*
Y14369D01*
X38647Y13648D01*
X83400Y-233662D02*
X81957D01*
X81235Y-234384D01*
Y-237270D01*
X81957Y-237991D01*
X83400D01*
X84122Y-237270D01*
Y-234384D01*
X83400Y-233662D01*
X85565D02*
Y-237270D01*
X86286Y-237991D01*
X87729D01*
X88451Y-237270D01*
Y-233662D01*
X89894D02*
X92780D01*
X91337D01*
Y-237991D01*
X53284Y195472D02*
X51841D01*
X51120Y194750D01*
Y191864D01*
X51841Y191142D01*
X53284D01*
X54006Y191864D01*
Y194750D01*
X53284Y195472D01*
X55449Y191142D02*
Y195472D01*
X58335Y191142D01*
Y195472D01*
X59778Y191142D02*
X62664Y194029D01*
X66272Y195472D02*
X64829D01*
X64107Y194750D01*
Y191864D01*
X64829Y191142D01*
X66272D01*
X66994Y191864D01*
Y194750D01*
X66272Y195472D01*
X71323D02*
X68437D01*
Y193307D01*
X69880D01*
X68437D01*
Y191142D01*
X75652Y195472D02*
X72766D01*
Y193307D01*
X74209D01*
X72766D01*
Y191142D01*
X-130412Y-234450D02*
X-128969D01*
X-129691D01*
Y-238779D01*
X-130412D01*
X-128969D01*
X-126805D02*
Y-234450D01*
X-123918Y-238779D01*
Y-234450D01*
X-33197Y103766D02*
X-33918Y104488D01*
X-35362D01*
X-36083Y103766D01*
Y100880D01*
X-35362Y100158D01*
X-33918D01*
X-33197Y100880D01*
Y102323D01*
X-34640D01*
X-31754Y100158D02*
Y104488D01*
X-29589D01*
X-28868Y103766D01*
Y102323D01*
X-29589Y101601D01*
X-31754D01*
X-30311D02*
X-28868Y100158D01*
X-24538Y104488D02*
X-27424D01*
Y100158D01*
X-24538D01*
X-27424Y102323D02*
X-25982D01*
X-20209Y104488D02*
X-23095D01*
Y100158D01*
X-20209D01*
X-23095Y102323D02*
X-21652D01*
X-18766Y100158D02*
Y104488D01*
X-15880Y100158D01*
Y104488D01*
X-14437D02*
Y100158D01*
X-11550D01*
X-10107D02*
Y103044D01*
X-8664Y104488D01*
X-7221Y103044D01*
Y100158D01*
Y102323D01*
X-10107D01*
X-5778Y100158D02*
Y104488D01*
X-4335Y103044D01*
X-2892Y104488D01*
Y100158D01*
X-1449D02*
Y104488D01*
X716D01*
X1438Y103766D01*
Y102323D01*
X716Y101601D01*
X-1449D01*
D16*
X-184368Y-318330D02*
Y-314394D01*
X-182400D01*
X-181744Y-315050D01*
Y-316362D01*
X-182400Y-317018D01*
X-184368D01*
X-180432Y-318330D02*
Y-315706D01*
X-179120Y-314394D01*
X-177808Y-315706D01*
Y-318330D01*
Y-316362D01*
X-180432D01*
X-176496Y-314394D02*
Y-318330D01*
X-174528D01*
X-173872Y-317674D01*
Y-315050D01*
X-174528Y-314394D01*
X-176496D01*
X-170593Y-318330D02*
Y-314394D01*
X-172561Y-316362D01*
X-169937D01*
X169932Y-318330D02*
Y-314394D01*
X171900D01*
X172556Y-315050D01*
Y-316362D01*
X171900Y-317018D01*
X169932D01*
X173868Y-318330D02*
Y-315706D01*
X175180Y-314394D01*
X176492Y-315706D01*
Y-318330D01*
Y-316362D01*
X173868D01*
X177804Y-314394D02*
Y-318330D01*
X179772D01*
X180428Y-317674D01*
Y-315050D01*
X179772Y-314394D01*
X177804D01*
X181739Y-315050D02*
X182396Y-314394D01*
X183707D01*
X184363Y-315050D01*
Y-315706D01*
X183707Y-316362D01*
X183051D01*
X183707D01*
X184363Y-317018D01*
Y-317674D01*
X183707Y-318330D01*
X182396D01*
X181739Y-317674D01*
X169932Y314370D02*
Y318306D01*
X171900D01*
X172556Y317650D01*
Y316338D01*
X171900Y315682D01*
X169932D01*
X173868Y314370D02*
Y316994D01*
X175180Y318306D01*
X176492Y316994D01*
Y314370D01*
Y316338D01*
X173868D01*
X177804Y318306D02*
Y314370D01*
X179772D01*
X180428Y315026D01*
Y317650D01*
X179772Y318306D01*
X177804D01*
X184363Y314370D02*
X181739D01*
X184363Y316994D01*
Y317650D01*
X183707Y318306D01*
X182396D01*
X181739Y317650D01*
X-183768Y314370D02*
Y318306D01*
X-181800D01*
X-181144Y317650D01*
Y316338D01*
X-181800Y315682D01*
X-183768D01*
X-179832Y314370D02*
Y316994D01*
X-178520Y318306D01*
X-177208Y316994D01*
Y314370D01*
Y316338D01*
X-179832D01*
X-175896Y318306D02*
Y314370D01*
X-173928D01*
X-173272Y315026D01*
Y317650D01*
X-173928Y318306D01*
X-175896D01*
X-171960Y314370D02*
X-170649D01*
X-171305D01*
Y318306D01*
X-171960Y317650D01*
M02*
