G04*
G04 #@! TF.GenerationSoftware,Altium Limited,Altium Designer,20.1.11 (218)*
G04*
G04 Layer_Color=8388736*
%FSLAX25Y25*%
%MOIN*%
G70*
G04*
G04 #@! TF.SameCoordinates,48E65404-B400-47D1-B387-DC0D371750F1*
G04*
G04*
G04 #@! TF.FilePolarity,Negative*
G04*
G01*
G75*
%ADD10C,0.01000*%
%ADD17R,0.06787X0.10787*%
%ADD18O,0.10630X0.16535*%
%ADD19O,0.14567X0.10630*%
%ADD20C,0.12787*%
%ADD21C,0.07787*%
%ADD22C,0.06787*%
%ADD23R,0.07787X0.07787*%
%ADD24R,0.07787X0.07787*%
%ADD25C,0.09843*%
%ADD26C,0.08661*%
%ADD27C,0.08787*%
%ADD28C,0.24410*%
D10*
X-216535Y-342520D02*
Y342520D01*
X216535D01*
Y-342520D02*
Y342520D01*
X-216535Y-342520D02*
X216535D01*
D17*
X-132283Y219291D02*
D03*
X-118783D02*
D03*
D18*
X-157087Y-209842D02*
D03*
X-127559D02*
D03*
X-98032D02*
D03*
X57087D02*
D03*
X86614D02*
D03*
X116142D02*
D03*
D19*
X68898Y-146457D02*
D03*
Y-126772D02*
D03*
Y-107087D02*
D03*
X98425Y-146457D02*
D03*
Y-126772D02*
D03*
Y-107087D02*
D03*
X22835Y25984D02*
D03*
Y45669D02*
D03*
Y65354D02*
D03*
X52362Y25984D02*
D03*
Y45669D02*
D03*
Y65354D02*
D03*
X104921Y26772D02*
D03*
Y46457D02*
D03*
Y66142D02*
D03*
X134449Y26772D02*
D03*
Y46457D02*
D03*
Y66142D02*
D03*
D20*
X98425Y-48031D02*
D03*
X68898D02*
D03*
X52362Y124409D02*
D03*
X22835D02*
D03*
X134449Y125197D02*
D03*
X104921D02*
D03*
D21*
X-12008Y-72047D02*
D03*
X-62008D02*
D03*
X77992Y176772D02*
D03*
X67992D02*
D03*
X57992D02*
D03*
X-30827Y-95276D02*
D03*
X-16929Y35827D02*
D03*
X-17323Y90866D02*
D03*
Y80866D02*
D03*
D22*
X64961Y-29921D02*
D03*
X104961D02*
D03*
X101732Y142520D02*
D03*
X141732D02*
D03*
X19055Y145669D02*
D03*
X59055D02*
D03*
X-129528Y194095D02*
D03*
X-119528D02*
D03*
D23*
X47992Y176772D02*
D03*
X-40827Y-95276D02*
D03*
D24*
X-16929Y25827D02*
D03*
X-17323Y70866D02*
D03*
D25*
X-139173Y163976D02*
D03*
X-107677D02*
D03*
X-150000Y12402D02*
D03*
X-107677D02*
D03*
D26*
X-147244Y-135827D02*
D03*
X-107874Y-144488D02*
D03*
D27*
X-127953Y-22638D02*
D03*
X-152559Y-47244D02*
D03*
X-103347D02*
D03*
X-152559Y-86614D02*
D03*
X-103347D02*
D03*
D28*
X-177165Y316339D02*
D03*
X177165D02*
D03*
Y-316339D02*
D03*
X-177165D02*
D03*
M02*
