G04*
G04 #@! TF.GenerationSoftware,Altium Limited,Altium Designer,20.1.11 (218)*
G04*
G04 Layer_Physical_Order=1*
G04 Layer_Color=65280*
%FSLAX25Y25*%
%MOIN*%
G70*
G04*
G04 #@! TF.SameCoordinates,48E65404-B400-47D1-B387-DC0D371750F1*
G04*
G04*
G04 #@! TF.FilePolarity,Positive*
G04*
G01*
G75*
%ADD10C,0.01000*%
%ADD29R,0.06000X0.10000*%
%ADD30C,0.05906*%
%ADD31C,0.03150*%
%ADD32O,0.09843X0.15748*%
%ADD33O,0.13780X0.09843*%
%ADD34C,0.12000*%
%ADD35C,0.07000*%
%ADD36C,0.06000*%
%ADD37R,0.07000X0.07000*%
%ADD38R,0.07000X0.07000*%
%ADD39C,0.09055*%
%ADD40C,0.07874*%
%ADD41C,0.08000*%
%ADD42C,0.23622*%
D10*
X-216535Y-342520D02*
Y342520D01*
X216535D01*
Y-342520D02*
Y342520D01*
X-216535Y-342520D02*
X216535D01*
D29*
X-132283Y219291D02*
D03*
X-118783D02*
D03*
D30*
X-30827Y-95276D02*
X-12217Y-76666D01*
Y-72257D01*
X-12008Y-72047D01*
X-62008D02*
Y-42717D01*
X-82087Y-22638D02*
X-62008Y-42717D01*
X-127953Y-22638D02*
X-82087D01*
X-147244Y-157874D02*
Y-135827D01*
Y-157874D02*
X-132283Y-172835D01*
X121653D02*
X129528Y-164961D01*
X-132283Y-172835D02*
X121653D01*
X129528Y-164961D02*
Y-142520D01*
X98425Y-126772D02*
X113779D01*
X129528Y-142520D01*
D31*
X67992Y175730D02*
Y176772D01*
X19055Y145669D02*
X33228Y159843D01*
X84409D02*
X101732Y142520D01*
X33228Y159843D02*
X84409D01*
X85433Y46457D02*
X104921D01*
X64961Y25984D02*
X85433Y46457D01*
X52362Y25984D02*
X64961D01*
X104921Y66142D02*
Y76181D01*
X96850Y84252D02*
X104921Y76181D01*
X46063Y84252D02*
X96850D01*
X37795Y60630D02*
Y75984D01*
X46063Y84252D01*
X22835Y45669D02*
X22992D01*
X26084Y48761D01*
Y48918D01*
X37795Y60630D01*
X-119156Y218919D02*
X-118783Y219291D01*
X-119156Y194466D02*
Y218919D01*
X-119528Y194095D02*
X-119156Y194466D01*
X-129528Y194095D02*
Y214535D01*
X-132283Y217291D02*
X-129528Y214535D01*
X-132283Y217291D02*
Y219291D01*
D32*
X-157087Y-209842D02*
D03*
X-127559D02*
D03*
X-98032D02*
D03*
X57087D02*
D03*
X86614D02*
D03*
X116142D02*
D03*
D33*
X68898Y-146457D02*
D03*
Y-126772D02*
D03*
Y-107087D02*
D03*
X98425Y-146457D02*
D03*
Y-126772D02*
D03*
Y-107087D02*
D03*
X22835Y25984D02*
D03*
Y45669D02*
D03*
Y65354D02*
D03*
X52362Y25984D02*
D03*
Y45669D02*
D03*
Y65354D02*
D03*
X104921Y26772D02*
D03*
Y46457D02*
D03*
Y66142D02*
D03*
X134449Y26772D02*
D03*
Y46457D02*
D03*
Y66142D02*
D03*
D34*
X98425Y-48031D02*
D03*
X68898D02*
D03*
X52362Y124409D02*
D03*
X22835D02*
D03*
X134449Y125197D02*
D03*
X104921D02*
D03*
D35*
X-12008Y-72047D02*
D03*
X-62008D02*
D03*
X77992Y176772D02*
D03*
X67992D02*
D03*
X57992D02*
D03*
X-30827Y-95276D02*
D03*
X-16929Y35827D02*
D03*
X-17323Y90866D02*
D03*
Y80866D02*
D03*
D36*
X64961Y-29921D02*
D03*
X104961D02*
D03*
X101732Y142520D02*
D03*
X141732D02*
D03*
X19055Y145669D02*
D03*
X59055D02*
D03*
X-129528Y194095D02*
D03*
X-119528D02*
D03*
D37*
X47992Y176772D02*
D03*
X-40827Y-95276D02*
D03*
D38*
X-16929Y25827D02*
D03*
X-17323Y70866D02*
D03*
D39*
X-139173Y163976D02*
D03*
X-107677D02*
D03*
X-150000Y12402D02*
D03*
X-107677D02*
D03*
D40*
X-147244Y-135827D02*
D03*
X-107874Y-144488D02*
D03*
D41*
X-127953Y-22638D02*
D03*
X-152559Y-47244D02*
D03*
X-103347D02*
D03*
X-152559Y-86614D02*
D03*
X-103347D02*
D03*
D42*
X-177165Y316339D02*
D03*
X177165D02*
D03*
Y-316339D02*
D03*
X-177165D02*
D03*
M02*
