M48
;Layer_Color=9474304
;FILE_FORMAT=2:5
INCH,LZ
;TYPE=PLATED
T1F00S00C0.03150
T2F00S00C0.03937
T3F00S00C0.04724
T4F00S00C0.05118
T5F00S00C0.05906
T6F00S00C0.11811
T7F00S00C0.13780
%
T01
X0064961Y-0029921
X0104961
X0141732Y014252
X0101732
X0059055Y0145669
X0019055
X-0119528Y0194095
X-0129528
T02
X-0152559Y-0086614
Y-0047244
X-0103347
Y-0086614
X-0035433Y-006752
Y-001752
X-0127953Y-0022638
X0052621Y0247661
X0063521
X0074421
X0085321
X0096221
X0090821Y0258661
X0079921
X0069021
X0058121
T03
X-0147244Y-0135827
X-0107874Y-0144488
X-0050591Y-0095276
X-0021063
T04
X-015Y0012402
X-0107677
Y0163976
X-0139173
T05
X0057087Y-0209842
X0086614
X0116142
X0098425Y-0146457
Y-0126772
X0068898
Y-0146457
X-0098032Y-0209842
X-0127559
X-0157087
X0068898Y-0107087
X0098425
Y-0048031
X0068898
X0052362Y0025984
X0022835
X0104921Y0026772
X0134449
Y0046457
Y0066142
X0104921
Y0046457
X0052362Y0045669
Y0065354
X0022835
Y0045669
Y0124409
X0052362
X0104921Y0125197
X0134449
T06
X0025121Y0253161
X0123721Y0252661
T07
X-0177165Y-0316339
X0177165
X-0177165Y0316339
X0177165
M30
